<svg width="65" height="65" viewBox="0 0 65 65" fill="none" xmlns="http://www.w3.org/2000/svg">
<path d="M32.5 0C50.4493 0 65 14.5507 65 32.5C65 50.4493 50.4493 65 32.5 65C14.5507 65 0 50.4493 0 32.5C0 14.5507 14.5507 0 32.5 0ZM45.958 24.4141C45.1612 23.6331 43.8692 23.6333 43.0723 24.4141L29.3848 37.8262L22.1191 31.7295C21.266 31.0136 19.9942 31.1254 19.2783 31.9785C18.5625 32.8316 18.6733 34.1035 19.5264 34.8193L27.6582 41.6416C27.7439 41.7839 27.8469 41.9197 27.9717 42.042C28.7685 42.8228 30.0605 42.8226 30.8574 42.042L45.958 27.2422C46.7546 26.4611 46.7548 25.195 45.958 24.4141Z" fill="black"/>
</svg>
