<svg width="34" height="34" viewBox="0 0 34 34" fill="none" xmlns="http://www.w3.org/2000/svg">
<path d="M31.8797 0H1.87031C1.37541 0.00367971 0.901826 0.201911 0.551869 0.551869C0.201911 0.901826 0.00367971 1.37541 0 1.87031V31.8797C0.00367971 32.3746 0.201911 32.8482 0.551869 33.1981C0.901826 33.5481 1.37541 33.7463 1.87031 33.75H18.0281V20.7H13.6406V15.5953H18.0281V11.8406C18.0281 7.48125 20.6859 5.10469 24.5953 5.10469C25.9031 5.10469 27.2109 5.10469 28.5188 5.30156V9.84375H25.8328C23.7094 9.84375 23.3016 10.8563 23.3016 12.3328V15.5813H28.3641L27.7031 20.6859H23.3016V33.75H31.8797C32.3746 33.7463 32.8482 33.5481 33.1981 33.1981C33.5481 32.8482 33.7463 32.3746 33.75 31.8797V1.87031C33.7463 1.37541 33.5481 0.901826 33.1981 0.551869C32.8482 0.201911 32.3746 0.00367971 31.8797 0Z" fill="white"/>
</svg>
