<?xml version="1.0" encoding="UTF-8"?>
<svg id="Capa_2" data-name="Capa 2" xmlns="http://www.w3.org/2000/svg" viewBox="0 0 194.27 51.78">
  <defs>
    <style>
      .cls-1 {
        fill: #0e4c8c;
        stroke: #0e4c8c;
        stroke-miterlimit: 22.93;
        stroke-width: .02px;
      }
    </style>
  </defs>
  <g id="Capa_1-2" data-name="Capa 1">
    <g>
      <path class="cls-1" d="M185.47,33.07c0-.6.11-1.17.34-1.7.23-.53.55-1,.95-1.4.4-.4.87-.72,1.4-.95.54-.23,1.1-.35,1.71-.35s1.17.12,1.7.35c.53.23,1,.55,1.4.95.4.4.72.87.95,1.4.23.53.35,1.1.35,1.7s-.12,1.17-.35,1.71c-.23.54-.55,1.01-.95,1.4-.4.4-.87.71-1.4.95-.53.23-1.1.35-1.7.35s-1.17-.12-1.71-.35c-.54-.23-1-.55-1.4-.95-.4-.4-.72-.86-.95-1.4-.23-.54-.34-1.11-.34-1.71ZM186.43,33.07c0,.48.09.92.27,1.34.18.42.42.78.74,1.09.31.31.68.56,1.09.74.42.18.86.27,1.34.27s.92-.09,1.34-.27c.42-.18.78-.42,1.09-.74.31-.31.55-.68.73-1.09.18-.42.27-.86.27-1.34s-.09-.92-.27-1.33c-.18-.41-.42-.77-.73-1.08-.31-.31-.67-.55-1.09-.73-.42-.18-.86-.27-1.34-.27s-.92.09-1.34.27c-.42.18-.78.42-1.09.73-.31.31-.56.67-.74,1.08s-.27.86-.27,1.33ZM190.58,35.08l-.89-1.38h-.51v1.38h-.92v-3.43c0-.38.19-.57.58-.57h1.3c.22,0,.42.04.58.11.17.08.31.17.42.3s.2.26.26.42c.06.15.08.32.08.48,0,.25-.07.5-.21.73s-.35.4-.62.5l.96,1.46h-1.04ZM190.06,31.88h-.88v1.02h.88c.17,0,.29-.05.38-.16s.13-.22.13-.35c0-.13-.04-.25-.13-.36s-.21-.15-.38-.15Z"/>
      <g>
        <path class="cls-1" d="M21.82,3.17c.36-1.03.85-1.82,1.47-2.35C23.91.28,24.74,0,25.78,0s1.86.27,2.46.8c.61.54,1.09,1.32,1.45,2.35l6.8,21.25L43.77,1.03c.19-.61.75-1.02,1.39-1.02h4.88c1,0,1.7.98,1.38,1.92l-11.02,32.71c-.32.93-.81,1.63-1.47,2.11-.66.48-1.4.72-2.22.72s-1.57-.24-2.25-.72c-.68-.48-1.16-1.19-1.45-2.11l-7.23-21.14-7.23,21.14c-.32.93-.82,1.63-1.5,2.11-.68.48-1.43.72-2.25.72s-1.56-.24-2.22-.72c-.66-.48-1.15-1.19-1.47-2.11L.09,1.93C-.23.99.47,0,1.47,0h4.88c.64,0,1.2.41,1.39,1.02l7.28,23.39L21.82,3.17Z"/>
        <path class="cls-1" d="M56.34,26.45c.5,1.71,1.45,3.15,2.84,4.31,1.39,1.16,3,1.74,4.82,1.74,1.28,0,2.48-.31,3.59-.94,1.11-.62,2.02-1.45,2.73-2.49l6.16,2.52c-1.32,2.14-3.07,3.85-5.25,5.14-2.18,1.28-4.6,1.93-7.28,1.93-2.03,0-3.93-.38-5.7-1.12-1.77-.75-3.31-1.78-4.63-3.11-1.32-1.32-2.36-2.85-3.13-4.6-.77-1.75-1.15-3.62-1.15-5.62s.38-3.87,1.15-5.62c.77-1.75,1.81-3.28,3.13-4.6,1.32-1.32,2.86-2.35,4.63-3.11,1.77-.75,3.67-1.12,5.7-1.12,1.93,0,3.74.35,5.43,1.04,1.69.7,3.19,1.64,4.5,2.84,1.3,1.2,2.35,2.6,3.16,4.2.8,1.61,1.28,3.34,1.42,5.19.07,1.04-.21,1.86-.86,2.49-.64.62-1.57.94-2.78.94h-18.47ZM71.06,21.58c-.5-1.61-1.41-2.95-2.73-4.04-1.32-1.09-2.82-1.63-4.5-1.63-.86,0-1.68.14-2.46.43-.79.29-1.5.69-2.14,1.2-.64.52-1.2,1.12-1.69,1.79s-.85,1.43-1.1,2.25h14.61Z"/>
        <path class="cls-1" d="M80.59,24.2c0-2,.35-3.87,1.04-5.62.7-1.75,1.64-3.28,2.84-4.6,1.2-1.32,2.6-2.35,4.2-3.11,1.61-.75,3.32-1.12,5.14-1.12,1.71,0,3.34.34,4.87,1.02,1.53.68,2.87,1.61,4.01,2.78v-2.84h7.07v26.12c0,2.68-.45,4.95-1.34,6.83-.89,1.87-2.04,3.42-3.45,4.63-1.41,1.21-3.02,2.1-4.82,2.65-1.8.55-3.61.83-5.43.83-2.89,0-5.47-.59-7.74-1.77-2.27-1.18-4.2-2.64-5.81-4.39l4.71-4.34c1.14,1.07,2.44,2.02,3.91,2.84,1.46.82,3.1,1.23,4.92,1.23,1.03,0,2.02-.16,2.97-.48.95-.32,1.79-.82,2.54-1.5.75-.68,1.35-1.53,1.79-2.57.45-1.04.67-2.28.67-3.75v-2.19c-1.14,1.18-2.48,2.1-4.01,2.76-1.53.66-3.16.99-4.87.99-1.82,0-3.53-.38-5.14-1.12-1.61-.75-3.01-1.78-4.2-3.11-1.2-1.32-2.14-2.85-2.84-4.6-.7-1.75-1.04-3.6-1.04-5.57ZM87.34,24.15c0,1.11.2,2.16.62,3.16.41,1,.97,1.87,1.69,2.62.71.75,1.54,1.35,2.49,1.79.94.45,1.95.67,3.02.67s2.08-.22,3.02-.67c.95-.45,1.77-1.04,2.46-1.79.7-.75,1.25-1.62,1.66-2.62.41-1,.62-2.05.62-3.16s-.21-2.15-.62-3.13c-.41-.98-.96-1.85-1.66-2.6-.7-.75-1.52-1.35-2.46-1.79-.95-.45-1.95-.67-3.02-.67s-2.08.22-3.02.67c-.95.45-1.78,1.04-2.49,1.79-.71.75-1.28,1.62-1.69,2.6-.41.98-.62,2.03-.62,3.13Z"/>
        <path class="cls-1" d="M121.65,37.48h-7.06V0h7.06v37.47Z"/>
        <path class="cls-1" d="M125.13,24.2c0-2,.38-3.87,1.15-5.62.77-1.75,1.82-3.28,3.16-4.6,1.34-1.32,2.9-2.35,4.68-3.11,1.78-.75,3.69-1.12,5.73-1.12s3.94.38,5.73,1.12c1.78.75,3.35,1.79,4.68,3.11,1.34,1.32,2.39,2.86,3.16,4.6.77,1.75,1.15,3.62,1.15,5.62s-.38,3.87-1.15,5.62c-.77,1.75-1.82,3.28-3.16,4.6-1.34,1.32-2.9,2.36-4.68,3.11s-3.69,1.12-5.73,1.12-3.94-.38-5.73-1.12-3.34-1.78-4.68-3.11c-1.34-1.32-2.39-2.85-3.16-4.6-.77-1.75-1.15-3.62-1.15-5.62ZM131.87,24.15c0,1.11.21,2.16.64,3.16.43,1,1,1.88,1.71,2.65.71.77,1.56,1.37,2.54,1.82.98.45,2.02.67,3.13.67s2.09-.22,3.05-.67c.96-.45,1.81-1.05,2.54-1.82.73-.77,1.3-1.65,1.71-2.65.41-1,.61-2.05.61-3.16s-.21-2.11-.61-3.11c-.41-1-.98-1.87-1.71-2.62-.73-.75-1.58-1.35-2.54-1.79-.96-.45-1.98-.67-3.05-.67s-2.15.22-3.13.67c-.98.45-1.83,1.04-2.54,1.79-.71.75-1.29,1.62-1.71,2.62-.43,1-.64,2.03-.64,3.11Z"/>
        <path class="cls-1" d="M177.37,22.6c0-1.82-.58-3.31-1.74-4.47-1.16-1.16-2.6-1.74-4.31-1.74-.86,0-1.67.16-2.44.48-.77.32-1.43.77-1.98,1.34-.55.57-.99,1.23-1.31,1.98-.32.75-.48,1.55-.48,2.41v14.88h-7.07V10.71h7.07v2.41c1.04-1.04,2.22-1.84,3.56-2.41,1.34-.57,2.78-.86,4.31-.86s3.05.3,4.44.91c1.39.61,2.6,1.43,3.64,2.46,1.04,1.04,1.86,2.27,2.46,3.69.61,1.43.91,2.96.91,4.6v15.95h-7.07v-14.88Z"/>
      </g>
    </g>
  </g>
</svg>