<?xml version="1.0" encoding="UTF-8"?>
<svg id="Capa_2" data-name="Capa 2" xmlns="http://www.w3.org/2000/svg" viewBox="0 0 64.55 49.8">
  <defs>
    <style>
      .cls-1 {
        fill: #00b3e1;
      }

      .cls-1, .cls-2 {
        fill-rule: evenodd;
      }

      .cls-2 {
        fill: #0e4c8c;
        stroke: #0e4c8c;
        stroke-miterlimit: 22.93;
        stroke-width: .02px;
      }
    </style>
  </defs>
  <g id="Capa_1-2" data-name="Capa 1">
    <g>
      <path class="cls-1" d="M11.14,43.46l5.41-3.46s.05,4.98,6.48,6.82c6.22,1.78,8.22-1.51,9.72-2.88.93-.85,2.3-1.02,3.39-.39,3.03,1.74,7.44,4.88,13.93.86,9.28-5.74,3.18-16.76,3.11-18.39-.06-1.23.99-1.55,1.46.18.35,1.29,2.08,1.51,2.74.35.91-1.6,1.54-3.7.62-5.87-1.07-2.53-4.2-5.94-8.07-3.76-7.55,4.27-35.96,20.75-40.55,23.34-.23.13-.51.02-.6-.23l-1.64-4.6c-.21-.6-.91-.85-1.46-.53l-.34.2c-.32.19-.51.53-.5.9l.14,6.12c0,.43-.22.83-.59,1.05l-.72.41c-.91.53-1.72,1.23-2.36,2.06l-1.17,1.52c-.38.44.04,1.1.6.95l2.5-.64c.71-.18,1.39-.46,2.03-.82l.8-.46c.38-.22.85-.21,1.22.03l5.41,3.44c.33.21.76.21,1.09,0l.29-.19c.51-.33.61-1.04.22-1.5l-3.27-3.86c-.17-.2-.12-.51.11-.64Z"/>
      <path class="cls-2" d="M53.4,6.36l-5.41,3.46s-.05-4.98-6.48-6.82c-6.22-1.78-8.22,1.51-9.72,2.88-.93.85-2.3,1.02-3.39.39-3.03-1.74-7.44-4.88-13.93-.86-9.28,5.74-3.18,16.76-3.11,18.39.06,1.23-.99,1.55-1.46-.18-.35-1.29-2.08-1.51-2.74-.35-.91,1.6-1.54,3.7-.62,5.87,1.07,2.53,4.2,5.94,8.07,3.76,7.55-4.27,35.96-20.75,40.55-23.34.23-.13.51-.02.6.23l1.64,4.6c.21.6.91.85,1.46.53l.34-.2c.32-.19.51-.53.5-.9l-.14-6.12c0-.43.22-.83.59-1.05l.72-.41c.91-.53,1.72-1.23,2.36-2.06l1.17-1.52c.38-.44-.04-1.1-.6-.95l-2.5.64c-.71.18-1.39.46-2.03.82l-.8.46c-.38.22-.85.21-1.22-.03L51.84.17c-.33-.21-.76-.21-1.09,0l-.29.19c-.51.33-.61,1.04-.22,1.5l3.27,3.86c.17.2.12.51-.11.64Z"/>
    </g>
  </g>
</svg>