<?xml version="1.0" encoding="UTF-8"?>
<svg id="Capa_2" data-name="Capa 2" xmlns="http://www.w3.org/2000/svg" viewBox="0 0 67.81 52.32">
  <defs>
    <style>
      .cls-1 {
        fill: #1d1d1b;
        fill-rule: evenodd;
      }
    </style>
  </defs>
  <g id="Capa_1-2" data-name="Capa 1">
    <g>
      <path class="cls-1" d="M11.71,45.65l5.69-3.63s.06,5.23,6.8,7.16c6.53,1.87,8.64-1.59,10.22-3.02.98-.89,2.42-1.08,3.56-.41,3.18,1.83,7.81,5.12,14.64.9,9.75-6.03,3.34-17.61,3.27-19.32-.06-1.29,1.05-1.63,1.54.19.37,1.36,2.18,1.59,2.88.36.96-1.68,1.62-3.88.65-6.17-1.12-2.66-4.42-6.24-8.48-3.95-7.94,4.48-37.78,21.8-42.61,24.53-.24.13-.54.02-.63-.24l-1.72-4.83c-.22-.63-.96-.9-1.54-.56l-.36.21c-.33.19-.54.55-.53.94l.14,6.43c.01.45-.23.87-.62,1.1l-.75.43c-.96.55-1.8,1.29-2.48,2.16l-1.23,1.59c-.4.46.04,1.16.63.99l2.63-.67c.75-.19,1.46-.48,2.13-.86l.84-.48c.4-.23.89-.22,1.28.03l5.69,3.62c.35.22.8.22,1.15,0l.3-.2c.54-.35.64-1.09.23-1.58l-3.44-4.05c-.18-.21-.12-.53.12-.67Z"/>
      <path class="cls-1" d="M56.1,6.67l-5.69,3.63s-.06-5.23-6.8-7.16-8.64,1.59-10.22,3.02c-.98.89-2.42,1.08-3.56.41-3.18-1.83-7.81-5.12-14.64-.9-9.75,6.03-3.34,17.61-3.27,19.32.06,1.29-1.05,1.63-1.54-.19-.37-1.36-2.18-1.59-2.88-.36-.96,1.68-1.62,3.88-.65,6.17,1.12,2.66,4.42,6.24,8.48,3.95,7.94-4.48,37.78-21.8,42.61-24.53.24-.13.54-.02.63.24l1.72,4.83c.22.63.96.9,1.54.56l.36-.21c.33-.19.54-.55.53-.94l-.14-6.43c-.01-.45.23-.87.62-1.1l.75-.43c.96-.55,1.8-1.29,2.48-2.16l1.23-1.59c.4-.46-.04-1.16-.63-.99l-2.63.67c-.75.19-1.46.48-2.13.86l-.84.48c-.4.23-.89.22-1.28-.03L54.46.17c-.35-.22-.8-.22-1.15,0l-.3.2c-.54.35-.64,1.09-.23,1.58l3.44,4.05c.18.21.12.53-.12.67Z"/>
    </g>
  </g>
</svg>