<?xml version="1.0" encoding="UTF-8"?>
<svg id="Capa_2" data-name="Capa 2" xmlns="http://www.w3.org/2000/svg" viewBox="0 0 33.16 33.16">
  <g id="ELEMENTS">
    <g>
      <path d="M16.65,12.62c-.96,0-1.75.78-1.75,1.75s.78,1.75,1.75,1.75,1.75-.78,1.75-1.75-.78-1.75-1.75-1.75Z"/>
      <path d="M16.58,0C7.42,0,0,7.42,0,16.58s7.42,16.58,16.58,16.58,16.58-7.42,16.58-16.58S25.74,0,16.58,0ZM17.97,25.15c-.69.81-1.94.81-2.63,0-2.11-2.48-6.01-7.48-6.01-10.43,0-4.04,3.28-7.32,7.32-7.32s7.32,3.28,7.32,7.32c0,2.95-3.9,7.94-6.01,10.43Z"/>
    </g>
  </g>
</svg>