<svg width="34" height="34" viewBox="0 0 34 34" fill="none" xmlns="http://www.w3.org/2000/svg">
<path d="M17 1.36035C8.3762 1.36035 1.35996 8.37659 1.35996 17.0004C1.35996 19.6932 2.0556 22.3411 3.3748 24.6776L1.38512 31.7768C1.31984 32.01 1.38308 32.2602 1.55172 32.4336C1.6816 32.5676 1.8584 32.6404 2.03996 32.6404C2.09436 32.6404 2.14944 32.6336 2.20316 32.6206L9.61244 30.7853C11.8748 31.9998 14.4228 32.6404 17 32.6404C25.6237 32.6404 32.64 25.6241 32.64 17.0004C32.64 8.37659 25.6237 1.36035 17 1.36035ZM24.8676 22.5192C24.533 23.4454 22.9282 24.2906 22.1571 24.4042C21.4648 24.5055 20.589 24.549 19.6275 24.2471C19.0447 24.0635 18.2967 23.8201 17.3386 23.4114C13.311 21.6937 10.6807 17.6892 10.4794 17.4247C10.2788 17.1602 8.83996 15.2752 8.83996 13.3243C8.83996 11.3734 9.87696 10.4139 10.2455 10.0168C10.6141 9.61963 11.0486 9.52035 11.3165 9.52035C11.5844 9.52035 11.8517 9.52375 12.0863 9.53463C12.3331 9.54687 12.6643 9.44147 12.99 10.2153C13.3246 11.0096 14.1276 12.9605 14.2269 13.1597C14.3276 13.3583 14.3942 13.5902 14.2609 13.8547C14.1276 14.1192 14.061 14.2844 13.8597 14.5163C13.6584 14.7482 13.4381 15.0331 13.2572 15.2113C13.056 15.4092 12.8472 15.6234 13.0811 16.0205C13.315 16.4176 14.1208 17.7157 15.3149 18.767C16.8483 20.1175 18.1424 20.5364 18.5436 20.7349C18.9448 20.9335 19.1794 20.9002 19.4133 20.6356C19.6472 20.3704 20.417 19.4776 20.6842 19.0812C20.9514 18.6847 21.2194 18.75 21.5879 18.8826C21.9565 19.0145 23.9305 19.9733 24.3317 20.1719C24.7329 20.3704 25.0008 20.4697 25.1015 20.635C25.2021 20.7995 25.2021 21.5938 24.8676 22.5192Z" fill="white"/>
</svg>
