<?xml version="1.0" encoding="UTF-8"?>
<svg id="Capa_2" data-name="Capa 2" xmlns="http://www.w3.org/2000/svg" viewBox="0 0 33.18 33.18">
  <g id="ELEMENTS">
    <g>
      <path d="M16.93,7.98c-4.4,0-7.99,3.58-7.99,7.99,0,1.45.4,2.89,1.17,4.14l.21.34-.8,2.98,3-.8.34.2c1.24.74,2.65,1.13,4.08,1.13,4.41,0,7.99-3.58,7.99-7.99s-3.58-7.99-7.99-7.99ZM21.62,18.98c-.3.72-1.04,1.19-1.78,1.33-.72.14-1.31-.09-1.97-.31-.59-.2-1.16-.48-1.69-.8-1.06-.65-1.98-1.52-2.71-2.52-.22-.31-.43-.62-.62-.95-.25-.43-.48-.89-.6-1.38-.05-.2-.07-.41-.08-.62,0-.74.27-1.49.86-1.97.34-.28.84-.4,1.22-.18.41.23.63.82.82,1.24.15.32.32.75.26,1.11-.06.36-.35.67-.58.94-.15.18-.18.34-.05.53.76,1.27,1.81,2.18,3.19,2.73.19.08.33.05.45-.1.24-.29.47-.87.84-1.02.48-.2,1.01.08,1.41.32.38.23,1.01.5,1.11.97.05.23,0,.46-.08.68Z"/>
      <path d="M16.59,0C7.43,0,0,7.43,0,16.59s7.43,16.59,16.59,16.59,16.59-7.43,16.59-16.59S25.75,0,16.59,0ZM16.93,25.82c-1.63,0-3.24-.41-4.68-1.19l-5.36,1.44,1.43-5.34c-.81-1.46-1.24-3.1-1.24-4.76,0-5.43,4.42-9.85,9.85-9.85s9.85,4.42,9.85,9.85-4.42,9.85-9.85,9.85Z"/>
    </g>
  </g>
</svg>